<svg width="90" height="90" viewBox="0 0 90 90" fill="none" xmlns="http://www.w3.org/2000/svg">
<mask id="mask0_2_248" style="mask-type:alpha" maskUnits="userSpaceOnUse" x="0" y="0" width="90" height="90">
<g clip-path="url(#clip0_2_248)">
<path d="M18.7337 55.2234C18.2976 55.8564 18.4569 56.7232 19.0899 57.1594C19.7229 57.5956 20.5897 57.4362 21.0259 56.8033C21.0351 56.79 21.044 56.7765 21.0527 56.7629C25.891 49.4397 34.0825 45.0346 42.8598 45.036C43.6285 45.036 44.2517 44.4128 44.2517 43.6441C44.2517 42.8754 43.6285 42.2522 42.8598 42.2522C33.1496 42.2498 24.0869 47.1223 18.7337 55.2234Z" fill="black"/>
<path d="M87.6905 72.8743H79.3391V71.1928C79.3714 62.1752 75.694 53.5411 69.1697 47.316C68.6292 46.7693 67.7479 46.7644 67.2012 47.3048C66.6545 47.8454 66.6497 48.7267 67.1901 49.2733C67.2064 49.2899 67.2231 49.3061 67.2404 49.3217C73.216 55.0242 76.5843 62.9329 76.555 71.1928V72.8743H12.5272V71.1928C12.5457 54.4483 26.1152 40.8787 42.8598 40.8603H46.2227C48.8083 40.8585 51.3835 41.186 53.8865 41.8346C54.623 42.0551 55.3987 41.6368 55.6191 40.9003C55.8396 40.1638 55.4213 39.3881 54.6848 39.1677C54.651 39.1576 54.6168 39.1487 54.5823 39.1413C52.6599 38.6454 50.6968 38.3235 48.7168 38.1794V33.9007C48.7168 33.132 48.0936 32.5088 47.3249 32.5088H41.7572C40.9885 32.5088 40.3653 33.132 40.3653 33.9007V38.1794C23.1044 39.5014 9.76601 53.8813 9.74322 71.1928V72.8743H1.39191C0.623229 72.8743 0 73.4975 0 74.2662C0 75.0349 0.623229 75.6581 1.39191 75.6581H87.6905C88.4592 75.6581 89.0824 75.0349 89.0824 74.2662C89.0824 73.4975 88.4592 72.8743 87.6905 72.8743ZM43.1493 35.2926H45.9331V38.0764H43.1493V35.2926Z" fill="black"/>
<path d="M58.9252 31.455C60.2211 32.6117 61.2442 33.5248 61.2442 35.3886C61.2442 37.2524 60.2211 38.1654 58.9252 39.3291C56.9553 40.7057 55.751 42.9317 55.6765 45.3338C55.6765 46.1025 56.2997 46.7257 57.0684 46.7257C57.8371 46.7257 58.4603 46.1025 58.4603 45.3338C58.4603 43.47 59.4834 42.5569 60.7793 41.4003C62.7504 40.0216 63.9547 37.7929 64.028 35.3886C63.9547 32.9846 62.7504 30.7565 60.7793 29.3783C59.4834 28.2216 58.4603 27.3085 58.4603 25.4461C58.4603 23.5838 59.4834 22.6721 60.7793 21.5154C62.7504 20.1386 63.9549 17.9112 64.028 15.5079C64.028 14.7392 63.4048 14.116 62.6361 14.116C61.8674 14.116 61.2442 14.7392 61.2442 15.5079C61.2442 17.3689 60.2211 18.2806 58.9252 19.4373C56.9538 20.8146 55.7492 23.0425 55.6765 25.4461C55.7499 27.8496 56.9543 30.0774 58.9252 31.455Z" fill="black"/>
<path d="M67.2767 31.455C68.5726 32.6117 69.5957 33.5248 69.5957 35.3886C69.5957 37.2524 68.5726 38.1724 67.2767 39.3235C65.3053 40.7013 64.1007 42.9296 64.028 45.3338C64.028 46.1025 64.6512 46.7257 65.4199 46.7257C66.1886 46.7257 66.8118 46.1025 66.8118 45.3338C66.8118 43.47 67.8349 42.5569 69.1308 41.4003C71.1019 40.0216 72.3063 37.7929 72.3795 35.3886C72.3063 32.9846 71.1019 30.7565 69.1308 29.3783C67.8349 28.2216 66.8118 27.3085 66.8118 25.4461C66.8118 23.5838 67.8349 22.6721 69.1308 21.5154C71.1019 20.1386 72.3064 17.9112 72.3795 15.5079C72.3795 14.7392 71.7563 14.116 70.9876 14.116C70.2189 14.116 69.5957 14.7392 69.5957 15.5079C69.5957 17.3689 68.5726 18.2806 67.2767 19.4373C65.3053 20.8146 64.1007 23.0425 64.028 25.4461C64.1014 27.8496 65.3058 30.0774 67.2767 31.455Z" fill="black"/>
<path d="M75.6282 31.455C76.9241 32.6117 77.9472 33.5248 77.9472 35.3886C77.9472 37.2524 76.9241 38.1724 75.6282 39.3235C73.6568 40.7013 72.4522 42.9296 72.3795 45.3338C72.3795 46.1025 73.0027 46.7257 73.7714 46.7257C74.5401 46.7257 75.1633 46.1025 75.1633 45.3338C75.1633 43.47 76.1864 42.5569 77.4823 41.4003C79.4534 40.0216 80.6577 37.7929 80.731 35.3886C80.6577 32.9846 79.4534 30.7565 77.4823 29.3783C76.1864 28.2216 75.1633 27.3085 75.1633 25.4461C75.1633 23.5838 76.1864 22.6721 77.4823 21.5154C79.4534 20.1386 80.6579 17.9112 80.731 15.5079C80.731 14.7392 80.1078 14.116 79.3391 14.116C78.5704 14.116 77.9472 14.7392 77.9472 15.5079C77.9472 17.3689 76.9241 18.2806 75.6282 19.4373C73.6568 20.8146 72.4522 23.0425 72.3795 25.4461C72.4529 27.8496 73.6573 30.0774 75.6282 31.455Z" fill="black"/>
</g>
</mask>
<g mask="url(#mask0_2_248)">
<rect x="-16.3829" y="-12.9656" width="129.016" height="106.489" fill="#BC9060"/>
</g>
<defs>
<clipPath id="clip0_2_248">
<rect width="89.0824" height="89.0824" fill="white" transform="translate(0 0.345703)"/>
</clipPath>
</defs>
</svg>
