<svg width="100" height="100" viewBox="0 0 100 100" fill="none" xmlns="http://www.w3.org/2000/svg">
<circle cx="50" cy="50" r="46.5" fill="#D67E34" stroke="white" stroke-width="7"/>
<path d="M36.17 53.17L30.32 53.5C29.98 53.5 29.71 53.41 29.51 53.23C29.31 53.05 29.21 52.86 29.21 52.66C29.21 52.44 29.48 52.25 30.02 52.09C30.18 51.57 30.8 50.02 31.88 47.44C32.98 44.86 33.57 43.41 33.65 43.09C33.75 42.75 33.85 42.36 33.95 41.92C34.05 41.48 34.14 41.15 34.22 40.93C34.3 40.71 34.47 40.48 34.73 40.24C34.99 40 35.27 39.88 35.57 39.88C35.87 39.88 36.08 40.01 36.2 40.27C36.34 40.53 36.41 40.81 36.41 41.11C36.41 41.87 36.15 42.65 35.63 43.45C35.11 44.23 34.41 45.46 33.53 47.14C32.65 48.82 31.92 50.42 31.34 51.94C32.3 51.94 33.3 51.83 34.34 51.61C35.4 51.37 36.12 51.22 36.5 51.16C36.8 47.68 37.18 45.94 37.64 45.94C37.86 45.94 38.08 46.09 38.3 46.39C38.54 46.69 38.66 46.99 38.66 47.29L38.42 50.98C39.2 50.98 39.88 51.16 40.46 51.52C41.06 51.88 41.36 52.27 41.36 52.69C41.36 53.21 41.03 53.47 40.37 53.47C40.09 53.47 39.73 53.42 39.29 53.32C38.87 53.2 38.51 53.14 38.21 53.14C38.17 53.98 38.15 55.28 38.15 57.04C38.15 57.4 37.99 57.7 37.67 57.94C37.37 58.18 36.94 58.3 36.38 58.3C35.98 58.3 35.78 57.97 35.78 57.31C35.78 56.25 35.91 54.87 36.17 53.17ZM45.4529 44.35C45.4529 44.63 45.5429 45 45.7229 45.46C45.9229 45.9 46.0229 46.25 46.0229 46.51C46.0229 46.75 45.9329 46.99 45.7529 47.23C45.5929 47.47 45.3729 47.59 45.0929 47.59C44.8129 47.59 44.5729 47.36 44.3729 46.9C44.1929 46.44 44.1029 45.98 44.1029 45.52C44.1029 44.24 44.6129 43.2 45.6329 42.4C46.6529 41.6 47.7629 41.2 48.9629 41.2C50.1629 41.2 51.1929 41.53 52.0529 42.19C52.9329 42.85 53.3729 43.73 53.3729 44.83C53.3729 45.91 53.1629 46.84 52.7429 47.62C52.3429 48.4 51.8729 49.03 51.3329 49.51C50.7929 49.99 49.9829 50.7 48.9029 51.64C47.8429 52.58 46.9129 53.48 46.1129 54.34C46.8329 54.46 47.8229 54.71 49.0829 55.09C50.3629 55.45 51.1129 55.63 51.3329 55.63C52.0729 55.63 52.7729 55.09 53.4329 54.01C53.7729 53.43 54.0129 53.14 54.1529 53.14C54.3329 53.14 54.4229 53.26 54.4229 53.5C54.4229 54.06 54.1329 54.8 53.5529 55.72C52.9929 56.64 52.4829 57.28 52.0229 57.64C51.5629 57.98 50.8729 58.15 49.9529 58.15C49.6729 58.15 48.9429 57.82 47.7629 57.16C46.5829 56.5 45.6329 56.17 44.9129 56.17C44.3529 57.39 43.8429 58 43.3829 58C43.0429 58 42.7629 57.9 42.5429 57.7C42.3429 57.5 42.2429 57.18 42.2429 56.74C42.2429 56.3 42.4729 55.79 42.9329 55.21C43.3929 54.63 43.9229 54.3 44.5229 54.22C45.2029 53.5 45.9729 52.73 46.8329 51.91C47.6929 51.09 48.3029 50.49 48.6629 50.11C49.0429 49.73 49.4229 49.28 49.8029 48.76C50.2029 48.24 50.4629 47.73 50.5829 47.23C50.7229 46.73 50.7929 46.1 50.7929 45.34C50.7929 44.58 50.5629 43.92 50.1029 43.36C49.6429 42.78 49.0329 42.49 48.2729 42.49C47.5129 42.49 46.8529 42.63 46.2929 42.91C45.7329 43.19 45.4529 43.67 45.4529 44.35ZM62.1941 42.88L60.6341 43.03C60.4741 43.03 60.3941 42.93 60.3941 42.73C60.3941 42.39 60.6641 42.1 61.2041 41.86C61.7441 41.62 62.3741 41.5 63.0941 41.5C64.3541 41.5 65.4241 42.1 66.3041 43.3C67.1841 44.5 67.6241 46.24 67.6241 48.52C67.6241 50.74 67.0741 52.85 65.9741 54.85C65.4341 55.83 64.6841 56.63 63.7241 57.25C62.7641 57.85 61.6741 58.15 60.4541 58.15C58.7541 58.15 57.5041 57.57 56.7041 56.41C55.9241 55.23 55.5341 53.74 55.5341 51.94C55.5341 48.56 56.3441 45.81 57.9641 43.69C58.6441 42.79 59.2241 42.34 59.7041 42.34C59.8441 42.34 59.9141 42.41 59.9141 42.55C59.9141 42.67 59.8241 42.85 59.6441 43.09C58.8041 44.29 58.2941 45.45 58.1141 46.57C57.9341 47.69 57.8441 49.11 57.8441 50.83C57.8441 52.55 58.1541 53.96 58.7741 55.06C59.3941 56.14 60.1441 56.68 61.0241 56.68C61.9041 56.68 62.6241 56.46 63.1841 56.02C63.7641 55.56 64.1941 54.96 64.4741 54.22C65.0141 52.76 65.2841 51.2 65.2841 49.54C65.2841 47.88 65.0241 46.36 64.5041 44.98C63.9841 43.58 63.2141 42.88 62.1941 42.88Z" fill="white"/>
</svg>
